<svg xmlns="http://www.w3.org/2000/svg" viewBox="0 0 112.03 111.88" id="briefcase-portfolio">
  <g>
    <g>
      <g>
        <path fill="#fca2da" d="m100.69,22.17L11.72,90.2c10.24,13.19,26.23,21.68,44.21,21.68h.15c30.89,0,55.94-25.04,55.94-55.94h0c0-12.68-4.23-24.39-11.34-33.77Z"></path>
        <path fill="#fcc6e8" d="m56.09,0h-.15C25.04,0,0,25.04,0,55.94h0c0,12.91,4.38,24.8,11.72,34.27L100.69,22.17C90.48,8.71,74.3,0,56.09,0Z"></path>
      </g>
      <g>
        <path fill="#fca2da" d="M77.3 67.61H23.27c-1.15 0-2.28-.32-3.27-.91v15.65c0 2.71 2.2 4.91 4.91 4.91h62.22c2.71 0 4.91-2.2 4.91-4.91v-15.65c-.99.59-2.12.9-3.27.91h-11.46zM34.73 64.12h54.03c1.81 0 3.27-1.47 3.27-3.27v-21.29c0-2.71-2.2-4.91-4.91-4.91h-19.65v-4.91c0-2.71-2.2-4.91-4.91-4.91h-13.1c-2.71 0-4.91 2.2-4.91 4.91v4.91h-22.92c-.9 0-1.64.73-1.64 1.64v24.56c0 1.81 1.47 3.27 3.27 3.27h11.46z"></path>
        <path fill="none" stroke="#fff" stroke-miterlimit="10" stroke-width="2.21" d="M77.3 67.61H23.27c-1.15 0-2.28-.32-3.27-.91v15.65c0 2.71 2.2 4.91 4.91 4.91h62.22c2.71 0 4.91-2.2 4.91-4.91v-15.65c-.99.59-2.12.9-3.27.91h-11.46zM34.73 64.12h54.03c1.81 0 3.27-1.47 3.27-3.27v-21.29c0-2.71-2.2-4.91-4.91-4.91h-19.65v-4.91c0-2.71-2.2-4.91-4.91-4.91h-13.1c-2.71 0-4.91 2.2-4.91 4.91v4.91h-22.92c-.9 0-1.64.73-1.64 1.64v24.56c0 1.81 1.47 3.27 3.27 3.27h11.46z"></path>
        <rect width="16.37" height="5.1" x="47.83" y="29.54" fill="#fca2da"></rect>
        <rect width="16.37" height="5.1" x="47.83" y="29.54" fill="none" stroke="#fff" stroke-linecap="round" stroke-linejoin="round" stroke-width="1.4"></rect>
        <path fill="#fff" d="m75.66,47.74h-39.3c-.9,0-1.64-.73-1.64-1.64s.73-1.64,1.64-1.64h39.3c.9,0,1.64.73,1.64,1.64s-.73,1.64-1.64,1.64Z"></path>
        <path fill="#fca2da" d="M80.63 64.1v-3.3c0-.91-.74-1.65-1.65-1.65s-1.65.74-1.65 1.65v9.91c0 .91.74 1.65 1.65 1.65s1.65-.74 1.65-1.65v-6.6zM34.76 64.1v-3.3c0-.91-.74-1.65-1.65-1.65s-1.65.74-1.65 1.65v9.91c0 .91.74 1.65 1.65 1.65s1.65-.74 1.65-1.65v-6.6z"></path>
        <path fill="none" stroke="#fff" stroke-miterlimit="10" stroke-width="1.77" d="M80.63 64.1v-3.3c0-.91-.74-1.65-1.65-1.65s-1.65.74-1.65 1.65v9.91c0 .91.74 1.65 1.65 1.65s1.65-.74 1.65-1.65v-6.6zM34.76 64.1v-3.3c0-.91-.74-1.65-1.65-1.65s-1.65.74-1.65 1.65v9.91c0 .91.74 1.65 1.65 1.65s1.65-.74 1.65-1.65v-6.6z"></path>
      </g>
    </g>
  </g>
</svg>
